# This file uses centimeters as units for non-parametric coordinates.

mtllib mesh.mtl
v 0.500000 0.423005 -0.708727
v 0.500000 0.423005 0.708727
v 0.500000 -0.576995 -0.708727
v 0.500000 -0.576995 0.708727
v -0.500000 -0.576995 -0.708727
v -0.500000 -0.576995 0.708727
v -0.500000 0.423005 -0.708727
v -0.500000 0.423005 0.708727
vt 0.375000 0.000000
vt 0.375000 0.250000
vt 0.625000 0.000000
vt 0.625000 0.250000
vt 0.375000 0.500000
vt 0.625000 0.500000
vt 0.375000 0.750000
vt 0.625000 0.750000
vt 0.375000 1.000000
vt 0.625000 1.000000
vt 0.875000 0.000000
vt 0.875000 0.250000
vn -1.000000 0.000000 -0.000000
vn -1.000000 0.000000 -0.000000
vn -1.000000 0.000000 -0.000000
vn -1.000000 0.000000 -0.000000
vn 0.000000 1.000000 -0.000000
vn 0.000000 1.000000 -0.000000
vn 0.000000 1.000000 -0.000000
vn 0.000000 1.000000 -0.000000
vn 1.000000 0.000000 0.000000
vn 1.000000 0.000000 0.000000
vn 1.000000 0.000000 0.000000
vn 1.000000 0.000000 0.000000
vn 0.000000 -1.000000 0.000000
vn 0.000000 -1.000000 0.000000
vn 0.000000 -1.000000 0.000000
vn 0.000000 -1.000000 0.000000
vn 0.000000 -0.000000 -1.000000
vn 0.000000 -0.000000 -1.000000
vn 0.000000 -0.000000 -1.000000
vn 0.000000 -0.000000 -1.000000
g polySurface6 polySurface1
usemtl initialShadingGroup
f 1/1/1 3/2/2 2/3/3
f 2/3/3 3/2/2 4/4/4
f 3/2/5 5/5/6 4/4/7
f 4/4/7 5/5/6 6/6/8
f 5/5/9 7/7/10 6/6/11
f 6/6/11 7/7/10 8/8/12
f 7/7/13 1/9/14 8/8/15
f 8/8/15 1/9/14 2/10/16
f 2/3/17 4/4/18 8/11/19
f 8/11/19 4/4/18 6/12/20
v -0.192340 -0.742827 -0.468320
v 0.192340 -0.742827 -0.468320
v -0.192340 -0.358147 -0.468320
v 0.192340 -0.358147 -0.468320
v -0.192340 -0.358147 -0.853000
v 0.192340 -0.358147 -0.853000
v -0.192340 -0.742827 -0.853000
v 0.192340 -0.742827 -0.853000
vt 0.375000 0.000000
vt 0.625000 0.000000
vt 0.375000 0.250000
vt 0.625000 0.250000
vt 0.375000 0.500000
vt 0.625000 0.500000
vt 0.375000 0.750000
vt 0.625000 0.750000
vt 0.375000 1.000000
vt 0.625000 1.000000
vt 0.875000 0.000000
vt 0.875000 0.250000
vt 0.125000 0.000000
vt 0.125000 0.250000
vn 0.000000 0.000000 1.000000
vn 0.000000 0.000000 1.000000
vn 0.000000 0.000000 1.000000
vn 0.000000 0.000000 1.000000
vn 0.000000 1.000000 0.000000
vn 0.000000 1.000000 0.000000
vn 0.000000 1.000000 0.000000
vn 0.000000 1.000000 0.000000
vn 0.000000 0.000000 -1.000000
vn 0.000000 0.000000 -1.000000
vn 0.000000 0.000000 -1.000000
vn 0.000000 0.000000 -1.000000
vn 0.000000 -1.000000 0.000000
vn 0.000000 -1.000000 0.000000
vn 0.000000 -1.000000 0.000000
vn 0.000000 -1.000000 0.000000
vn 1.000000 0.000000 0.000000
vn 1.000000 0.000000 0.000000
vn 1.000000 0.000000 0.000000
vn 1.000000 0.000000 0.000000
vn -1.000000 0.000000 0.000000
vn -1.000000 0.000000 0.000000
vn -1.000000 0.000000 0.000000
vn -1.000000 0.000000 0.000000
g pCube4
f 9/13/21 10/14/22 11/15/23
f 11/15/23 10/14/22 12/16/24
f 11/15/25 12/16/26 13/17/27
f 13/17/27 12/16/26 14/18/28
f 13/17/29 14/18/30 15/19/31
f 15/19/31 14/18/30 16/20/32
f 15/19/33 16/20/34 9/21/35
f 9/21/35 16/20/34 10/22/36
f 10/14/37 16/23/38 12/16/39
f 12/16/39 16/23/38 14/24/40
f 15/25/41 9/13/42 13/26/43
f 13/26/43 9/13/42 11/15/44
